<?xml version="1.0" encoding="utf-8"?><svg version="1.1" id="Layer_1" xmlns="http://www.w3.org/2000/svg" xmlns:xlink="http://www.w3.org/1999/xlink" x="0px" y="0px" viewBox="0 0 81.27 122.88" style="enable-background:new 0 0 81.27 122.88" xml:space="preserve"><g><path d="M4.73,31.64C24.81,47.09,37.18,41,48.68,35.33c8.81-4.34,17.17-8.46,27.87-4.12V4.73H4.73V31.64L4.73,31.64z M76.55,36.33 c-9.75-4.73-17.63-0.85-25.98,3.27c-12.15,5.99-25.18,12.41-45.84-2.2v4.89c0,9.87,4.04,18.85,10.55,25.36S30.76,78.2,40.64,78.2 c9.87,0,18.85-4.04,25.36-10.55c6.51-6.51,10.55-15.49,10.55-25.36V36.33L76.55,36.33z M81.27,2.36v39.93 c0,11.18-4.57,21.34-11.94,28.7c-6.68,6.68-15.67,11.07-25.63,11.82v35.34h18.14c1.31,0,2.36,1.06,2.36,2.36 c0,1.3-1.06,2.36-2.36,2.36H22.77c-1.31,0-2.36-1.06-2.36-2.36c0-1.3,1.06-2.36,2.36-2.36h16.21V82.9 c-10.52-0.43-20.05-4.9-27.05-11.9C4.57,63.63,0,53.47,0,42.29V2.36C0,1.06,1.06,0,2.36,0h76.55C80.21,0,81.27,1.06,81.27,2.36 L81.27,2.36z"/></g></svg>